<svg xmlns="http://www.w3.org/svg/2000" viewBox="0 0 50 50">
<path stroke-width="2" fill="none" d="M3.75 12.5A8.75 8.75 0 0 0 21.25 12.5A8.75 8.75 0 0 0 3.75 12.5z " style="stroke-dasharray: 55, 57; stroke-dashoffset: 0;"></path>
<path stroke-width="2" fill="none" d="M28.75 12.5A8.75 8.75 0 0 0 46.25 12.5A8.75 8.75 0 0 0 28.75 12.5z " style="stroke-dasharray: 55, 57; stroke-dashoffset: 0;"></path>
<path stroke-width="2" fill="none" d="M3.75 37.5A8.75 8.75 0 0 0 21.25 37.5A8.75 8.75 0 0 0 3.75 37.5z " style="stroke-dasharray: 55, 57; stroke-dashoffset: 0;"></path>
<path stroke-width="2" fill="none" d="M28.75 37.5A8.75 8.75 0 0 0 46.25 37.5A8.75 8.75 0 0 0 28.75 37.5z " style="stroke-dasharray: 55, 57; stroke-dashoffset: 0;"></path>
</svg>
